<svg width="42" height="24" viewBox="0 0 42 24" fill="none" xmlns="http://www.w3.org/2000/svg">
<path d="M0.198864 24V0.727272H9.8125C11.5549 0.727272 13.0587 1.04167 14.3239 1.67045C15.5966 2.29167 16.5777 3.18561 17.267 4.35227C17.9564 5.51136 18.3011 6.88636 18.3011 8.47727C18.3011 10.0909 17.9489 11.4621 17.2443 12.5909C16.5398 13.7121 15.5398 14.5682 14.2443 15.1591C12.9489 15.7424 11.4148 16.0341 9.64205 16.0341H3.5625V11.6023H8.59659C9.44508 11.6023 10.1534 11.4924 10.7216 11.2727C11.2973 11.0455 11.733 10.7045 12.0284 10.25C12.3239 9.78788 12.4716 9.19697 12.4716 8.47727C12.4716 7.75757 12.3239 7.16288 12.0284 6.69318C11.733 6.21591 11.2973 5.85985 10.7216 5.625C10.1458 5.38258 9.4375 5.26136 8.59659 5.26136H5.82386V24H0.198864ZM13.3011 13.3636L19.0966 24H12.9602L7.27841 13.3636H13.3011ZM21.3864 24V0.727272H27.0114V10.0682H36.1818V0.727272H41.7955V24H36.1818V14.6477H27.0114V24H21.3864Z" fill="black"/>
</svg>
